<svg id="svg" version="1.1" width="400" height="385.91549295774644" viewBox="0 0 400 385.91549295774644" xmlns="http://www.w3.org/2000/svg" xmlns:xlink="http://www.w3.org/1999/xlink"><g id="svgg"><path id="path0" d="M0.000 193.050 L 0.000 386.100 199.773 386.100 L 399.547 386.100 399.677 267.085 C 399.748 201.626,399.748 114.754,399.677 74.035 L 399.547 0.000 199.773 0.000 L 0.000 0.000 0.000 193.050 M182.915 121.179 L 186.100 121.236 186.100 127.004 C 186.100 130.495,185.945 132.869,185.708 133.015 C 185.492 133.149,185.425 133.435,185.559 133.651 C 185.721 133.914,185.941 133.905,186.221 133.624 C 186.807 133.038,324.710 133.027,324.710 133.614 C 324.710 133.838,324.919 133.893,325.174 133.736 C 325.535 133.513,325.535 133.415,325.174 133.295 C 324.653 133.121,324.483 121.274,325.000 121.187 C 326.641 120.912,387.177 121.070,387.548 121.351 C 388.083 121.756,388.270 133.205,387.741 133.205 C 387.582 133.204,387.498 141.894,387.555 152.514 L 387.659 171.823 356.129 171.810 C 338.788 171.803,324.509 171.888,324.398 171.999 C 324.286 172.110,295.904 172.201,261.326 172.201 L 198.456 172.201 198.456 165.635 L 198.456 159.069 261.564 159.168 C 296.273 159.222,324.541 159.136,324.381 158.976 C 324.221 158.816,295.779 158.729,261.176 158.783 L 198.263 158.880 198.157 165.347 L 198.051 171.815 192.291 171.815 C 189.124 171.815,186.451 171.945,186.353 172.104 C 186.254 172.264,188.861 172.394,192.146 172.394 L 198.118 172.394 198.212 178.107 L 198.305 183.819 192.202 183.705 C 188.846 183.642,186.100 183.721,186.100 183.880 C 186.100 184.040,188.789 184.170,192.075 184.170 L 198.050 184.170 198.167 190.251 L 198.284 196.332 198.370 190.146 L 198.456 183.960 242.181 184.022 C 266.231 184.057,286.038 184.104,286.197 184.128 C 286.356 184.151,286.486 186.861,286.486 190.151 L 286.486 196.132 267.664 196.265 C 257.312 196.338,263.002 196.383,280.309 196.365 L 311.776 196.332 311.882 202.809 L 311.988 209.287 299.274 209.180 C 292.281 209.121,286.640 209.204,286.739 209.363 C 286.838 209.522,292.468 209.653,299.251 209.653 L 311.583 209.653 311.583 215.421 C 311.583 218.594,311.713 221.271,311.873 221.370 C 312.032 221.468,312.110 218.781,312.047 215.398 L 311.932 209.248 318.418 209.354 L 324.903 209.459 324.766 221.863 C 324.690 228.685,324.777 234.359,324.959 234.471 C 325.141 234.584,325.238 231.739,325.175 228.149 L 325.061 221.622 331.059 221.622 L 337.057 221.622 337.054 234.002 C 337.053 240.812,337.152 246.545,337.274 246.744 C 337.398 246.943,340.332 247.104,343.855 247.104 L 350.212 247.104 350.183 259.850 C 350.166 266.860,350.265 272.778,350.403 273.000 C 350.540 273.222,350.527 276.173,350.373 279.559 L 350.094 285.714 337.578 285.714 L 325.061 285.714 325.175 279.169 C 325.238 275.569,325.168 272.746,325.019 272.895 C 324.647 273.269,324.446 285.715,324.812 285.715 C 324.974 285.715,325.061 291.404,325.005 298.359 L 324.903 311.004 318.426 311.110 L 311.949 311.216 312.055 298.502 C 312.114 291.509,312.032 285.868,311.873 285.967 C 311.713 286.065,311.583 291.696,311.583 298.478 L 311.583 310.811 305.814 310.811 C 302.641 310.811,299.965 310.941,299.866 311.100 C 299.767 311.260,302.454 311.338,305.838 311.275 L 311.989 311.160 311.883 317.066 L 311.776 322.973 292.963 323.073 L 274.151 323.174 274.045 317.089 L 273.938 311.004 267.471 310.898 L 261.004 310.792 261.004 298.263 L 261.004 285.733 267.471 285.627 L 273.938 285.521 273.952 279.151 L 273.966 272.780 273.846 279.054 L 273.727 285.328 267.558 285.328 L 261.390 285.328 261.319 278.861 L 261.249 272.394 260.985 279.923 C 260.839 284.064,260.697 292.794,260.669 299.324 L 260.618 311.197 254.826 311.197 C 251.641 311.197,249.035 311.067,249.035 310.907 C 249.036 310.545,236.586 310.751,236.215 311.120 C 236.066 311.268,238.894 311.339,242.500 311.276 L 249.055 311.162 248.948 317.067 L 248.842 322.973 242.500 323.079 C 237.685 323.160,236.083 323.067,235.846 322.693 C 235.601 322.307,235.532 322.305,235.527 322.683 C 235.523 323.059,232.751 323.166,222.973 323.166 L 210.425 323.166 210.425 317.452 C 210.425 310.323,210.912 310.811,203.789 310.811 L 198.080 310.811 197.973 298.166 L 197.866 285.521 197.774 298.359 L 197.683 311.197 192.149 311.197 C 189.106 311.197,186.512 311.094,186.386 310.968 C 186.063 310.645,173.615 310.787,173.283 311.118 C 173.133 311.267,175.955 311.339,179.555 311.276 L 186.100 311.162 186.100 317.157 L 186.100 323.152 166.795 323.159 L 147.490 323.165 147.404 317.085 L 147.318 311.004 147.202 317.085 L 147.085 323.166 141.110 323.166 L 135.135 323.166 135.135 317.181 L 135.135 311.197 141.023 311.116 L 146.911 311.035 140.927 310.826 C 137.635 310.712,134.884 310.748,134.813 310.907 C 134.743 311.067,131.915 311.197,128.529 311.197 L 122.373 311.197 122.480 298.505 C 122.548 290.390,122.448 285.690,122.201 285.474 C 121.732 285.063,110.037 285.015,110.291 285.425 C 110.390 285.584,113.066 285.714,116.239 285.714 L 122.008 285.714 122.008 298.263 L 122.008 310.811 116.239 310.811 C 113.066 310.811,110.389 310.941,110.291 311.100 C 110.192 311.260,112.769 311.338,116.019 311.275 L 121.927 311.160 122.203 316.317 C 122.355 319.153,122.414 321.811,122.335 322.223 C 122.194 322.952,121.655 322.976,103.373 323.073 L 84.556 323.173 84.470 317.089 L 84.384 311.004 84.267 317.085 L 84.150 323.166 77.841 323.166 L 71.532 323.166 71.253 317.525 C 71.099 314.422,71.123 311.734,71.307 311.550 C 71.490 311.367,74.416 311.165,77.808 311.100 L 83.977 310.983 77.703 310.897 L 71.429 310.811 71.429 298.272 L 71.429 285.733 77.510 285.613 L 83.591 285.493 77.413 285.507 L 71.236 285.521 71.134 298.369 L 71.032 311.217 65.149 311.110 L 59.266 311.004 59.073 291.892 L 58.880 272.780 52.413 272.674 L 45.946 272.568 45.946 247.078 L 45.946 221.587 52.606 221.701 L 59.266 221.815 59.266 215.637 L 59.266 209.459 65.173 209.353 L 71.080 209.246 70.964 215.398 C 70.901 218.781,70.980 221.468,71.139 221.370 C 71.298 221.271,71.429 218.594,71.429 215.421 L 71.429 209.653 83.707 209.653 C 92.741 209.653,96.107 209.530,96.448 209.189 C 96.769 208.868,96.911 206.857,96.911 202.635 L 96.911 196.543 103.571 196.428 L 110.232 196.313 103.378 196.226 L 96.525 196.139 96.525 190.212 L 96.525 184.286 101.641 184.083 C 104.455 183.971,113.036 183.959,120.711 184.057 C 128.385 184.154,134.754 184.089,134.864 183.912 C 134.973 183.735,132.125 183.642,128.535 183.705 L 122.008 183.819 122.008 177.992 L 122.008 172.166 128.535 172.280 C 132.125 172.342,134.982 172.264,134.883 172.104 C 134.784 171.945,131.847 171.815,128.356 171.815 L 122.008 171.815 122.008 159.266 C 122.008 149.488,122.114 146.717,122.490 146.712 C 122.869 146.708,122.866 146.639,122.480 146.394 C 122.107 146.156,122.014 144.554,122.094 139.739 L 122.201 133.398 128.475 133.292 C 133.132 133.213,134.749 133.304,134.749 133.646 C 134.749 133.899,134.852 134.002,134.978 133.876 C 135.104 133.750,135.184 130.862,135.155 127.457 L 135.102 121.266 138.497 121.154 C 141.797 121.046,176.524 121.065,182.915 121.179 M399.521 152.606 L 399.421 172.008 393.822 172.008 L 388.224 172.008 388.124 152.606 L 388.024 133.205 393.822 133.205 L 399.621 133.205 399.521 152.606 M121.622 159.276 L 121.622 172.221 115.734 172.114 L 109.846 172.008 109.743 159.656 C 109.687 152.862,109.725 147.085,109.828 146.818 C 109.966 146.457,111.510 146.332,115.818 146.332 L 121.622 146.332 121.622 159.276 M387.838 178.185 L 387.838 183.977 356.371 183.977 L 324.903 183.977 324.797 178.087 L 324.690 172.196 356.264 172.295 L 387.838 172.394 387.838 178.185 M96.438 202.606 L 96.332 209.073 83.628 209.175 L 70.924 209.277 71.174 204.928 C 71.312 202.536,71.426 199.580,71.427 198.359 L 71.429 196.139 83.986 196.139 L 96.544 196.139 96.438 202.606 M216.288 196.428 C 219.831 196.491,225.739 196.492,229.415 196.428 C 233.092 196.365,230.193 196.312,222.973 196.312 C 215.753 196.312,212.745 196.364,216.288 196.428 M350.365 240.637 C 350.701 247.694,349.955 246.899,356.307 246.970 C 359.209 247.002,361.800 247.045,362.066 247.066 C 362.441 247.096,362.548 249.930,362.548 259.846 L 362.548 272.587 356.564 272.587 L 350.579 272.587 350.579 259.653 L 350.579 246.718 344.015 246.718 L 337.452 246.718 337.452 240.734 L 337.452 234.749 343.768 234.749 L 350.085 234.749 350.365 240.637 M65.347 260.515 L 71.042 260.638 71.042 266.397 C 71.042 269.564,71.173 272.236,71.332 272.335 C 71.491 272.434,71.535 269.795,71.429 266.470 L 71.236 260.425 65.444 260.408 L 59.653 260.392 65.347 260.515 M84.556 260.521 C 84.555 260.681,88.247 260.766,92.760 260.712 C 108.370 260.525,109.793 260.397,97.201 260.315 C 90.246 260.269,84.556 260.362,84.556 260.521 M147.490 260.521 C 147.490 260.681,151.182 260.766,155.695 260.712 C 171.304 260.525,172.728 260.397,160.135 260.315 C 153.181 260.269,147.490 260.362,147.490 260.521 M216.723 260.521 C 220.294 260.584,226.027 260.584,229.465 260.520 C 232.902 260.456,229.981 260.404,222.973 260.404 C 215.965 260.405,213.153 260.457,216.723 260.521 M274.303 260.727 C 274.196 261.005,274.163 263.744,274.228 266.813 L 274.347 272.394 274.432 266.506 L 274.517 260.618 286.863 260.618 L 299.208 260.618 299.330 266.410 L 299.452 272.202 299.436 266.313 L 299.421 260.425 286.959 260.323 C 276.969 260.241,274.459 260.321,274.303 260.727 M109.576 266.603 C 109.512 269.682,109.590 272.202,109.749 272.201 C 109.908 272.201,110.039 269.681,110.039 266.602 C 110.039 259.360,109.726 259.360,109.576 266.603 M84.328 278.958 C 84.327 282.568,84.385 284.096,84.457 282.355 C 84.528 280.613,84.529 277.660,84.458 275.791 C 84.387 273.923,84.328 275.347,84.328 278.958 M135.222 279.054 L 135.328 285.521 141.024 285.537 L 146.719 285.553 141.102 285.430 L 135.485 285.307 135.600 278.947 C 135.663 275.448,135.580 272.586,135.415 272.586 C 135.251 272.587,135.164 275.497,135.222 279.054 M147.262 278.958 C 147.262 282.568,147.320 284.096,147.391 282.355 C 147.463 280.613,147.463 277.660,147.392 275.791 C 147.321 273.923,147.263 275.347,147.262 278.958 M185.521 278.880 L 185.521 285.135 179.266 285.135 C 175.825 285.135,173.146 285.270,173.311 285.435 C 173.476 285.600,176.378 285.687,179.759 285.628 L 185.907 285.521 186.014 279.373 C 186.073 275.992,185.986 273.090,185.821 272.925 C 185.656 272.759,185.521 275.439,185.521 278.880 M198.248 279.054 L 198.263 285.521 203.808 285.629 C 207.569 285.701,209.526 285.593,209.889 285.292 C 210.472 284.808,210.708 272.587,210.135 272.587 C 209.976 272.586,209.846 275.410,209.846 278.861 L 209.846 285.135 204.160 285.242 L 198.474 285.349 198.354 278.967 L 198.234 272.586 198.248 279.054 M236.160 285.425 C 236.258 285.584,239.109 285.714,242.494 285.714 C 245.879 285.714,248.649 285.584,248.649 285.425 C 248.649 285.265,245.798 285.135,242.315 285.135 C 238.831 285.135,236.062 285.265,236.160 285.425 M299.867 285.425 C 299.965 285.584,302.641 285.714,305.814 285.714 C 308.987 285.714,311.583 285.584,311.583 285.425 C 311.583 285.265,308.907 285.135,305.635 285.135 C 302.364 285.135,299.768 285.265,299.867 285.425 M209.952 317.278 L 210.059 323.166 204.064 323.166 L 198.069 323.166 198.069 317.171 L 198.069 311.177 203.958 311.283 L 209.846 311.390 209.952 317.278 M273.745 317.181 L 273.745 323.166 267.375 323.166 L 261.004 323.166 261.004 317.181 L 261.004 311.197 267.375 311.197 L 273.745 311.197 273.745 317.181 M110.039 329.881 C 110.039 334.597,109.916 336.254,109.556 336.380 C 108.947 336.594,84.970 336.450,84.751 336.231 C 84.468 335.948,84.046 324.817,84.294 324.171 C 84.506 323.620,85.938 323.552,97.285 323.552 L 110.039 323.552 110.039 329.881 M172.973 329.707 C 172.973 334.207,172.843 335.945,172.490 336.173 C 171.958 336.516,148.052 336.598,147.712 336.258 C 147.394 335.939,146.951 324.895,147.227 324.175 C 147.440 323.619,148.844 323.552,160.220 323.552 L 172.973 323.552 172.973 329.707 M235.907 329.707 C 235.907 333.926,235.768 335.948,235.464 336.136 C 234.808 336.541,211.504 336.623,210.714 336.223 C 210.113 335.918,210.039 335.199,210.039 329.716 L 210.039 323.552 222.973 323.552 L 235.907 323.552 235.907 329.707 M299.614 329.862 L 299.614 336.173 293.533 336.365 C 288.868 336.513,276.565 336.481,274.421 336.316 C 274.262 336.303,274.131 333.427,274.131 329.923 L 274.131 323.552 286.873 323.552 L 299.614 323.552 299.614 329.862 " stroke="none" fill="#4f4f4f" fill-rule="evenodd"></path><path id="path1" d="M135.434 140.055 L 135.328 146.525 128.856 146.631 L 122.383 146.737 122.485 159.179 L 122.587 171.622 128.958 171.815 L 135.328 172.008 135.328 178.185 L 135.328 184.363 128.958 184.556 L 122.587 184.749 122.587 190.347 L 122.587 195.946 128.958 196.139 L 135.328 196.332 135.430 208.732 C 135.514 218.911,135.436 221.212,134.998 221.575 C 134.615 221.893,130.986 221.990,122.155 221.917 L 109.846 221.815 109.744 209.363 L 109.642 196.911 103.470 196.911 L 97.297 196.911 97.297 203.012 C 97.297 207.242,97.155 209.254,96.834 209.575 C 96.493 209.916,93.130 210.039,84.103 210.039 L 71.835 210.039 71.728 215.927 L 71.622 221.815 65.637 222.008 L 59.653 222.201 59.653 240.927 L 59.653 259.653 65.637 259.846 L 71.622 260.039 71.728 265.927 L 71.835 271.815 77.992 271.815 L 84.150 271.815 84.256 265.927 L 84.363 260.039 97.297 260.039 L 110.232 260.039 110.338 265.927 L 110.445 271.815 115.809 271.815 C 123.070 271.815,122.394 271.116,122.394 278.613 L 122.394 284.942 128.571 284.942 L 134.749 284.942 134.749 278.842 C 134.749 271.270,134.235 271.815,141.380 271.815 L 147.084 271.815 147.191 265.927 L 147.297 260.039 160.013 259.937 C 174.922 259.817,173.345 259.064,173.353 266.313 L 173.359 271.815 179.459 271.815 C 187.059 271.815,186.486 271.242,186.486 278.842 L 186.486 284.942 192.085 284.942 L 197.683 284.942 197.683 278.842 C 197.683 271.270,197.170 271.815,204.314 271.815 L 210.018 271.815 210.125 265.927 L 210.232 260.039 222.947 259.937 C 237.856 259.817,236.280 259.064,236.288 266.313 L 236.293 271.815 242.110 271.815 C 249.979 271.815,249.421 271.283,249.421 278.778 L 249.421 284.942 255.019 284.942 L 260.618 284.942 260.618 278.842 C 260.618 271.243,260.047 271.815,267.635 271.815 L 273.725 271.815 273.832 265.927 L 273.938 260.039 286.873 260.039 L 299.807 260.039 299.914 265.927 L 300.020 271.815 305.581 271.815 C 312.803 271.815,312.355 271.341,312.355 278.985 L 312.355 284.942 318.340 284.942 L 324.324 284.942 324.324 278.842 C 324.324 274.612,324.466 272.599,324.788 272.278 C 325.129 271.937,328.494 271.815,337.529 271.815 L 349.807 271.815 349.807 259.662 L 349.807 247.509 343.340 247.403 L 336.873 247.297 336.766 241.409 L 336.659 235.521 330.878 235.521 L 325.097 235.521 325.097 241.313 L 325.097 247.104 280.309 247.104 L 235.521 247.104 235.521 222.008 L 235.521 196.911 222.978 196.911 L 210.435 196.911 210.334 209.363 L 210.232 221.815 198.069 221.815 L 185.907 221.815 185.907 209.073 L 185.907 196.332 191.795 196.225 L 197.683 196.119 197.683 190.347 L 197.683 184.576 191.795 184.470 L 185.907 184.363 185.801 178.099 L 185.695 171.834 191.786 171.728 L 197.876 171.622 197.982 165.154 L 198.088 158.687 261.583 158.687 L 325.078 158.687 325.184 165.154 L 325.290 171.622 356.371 171.622 L 387.452 171.622 387.452 152.703 L 387.452 133.784 356.371 133.784 L 325.290 133.784 325.097 140.154 L 324.903 146.525 255.318 146.623 L 185.733 146.720 185.627 140.252 L 185.521 133.784 160.531 133.684 L 135.540 133.585 135.434 140.055 M185.714 152.705 L 185.714 158.693 160.521 158.594 L 135.328 158.494 135.222 152.606 L 135.115 146.718 160.415 146.718 L 185.714 146.718 185.714 152.705 M350.193 152.712 L 350.193 158.706 343.726 158.600 L 337.259 158.494 337.152 152.606 L 337.046 146.718 343.619 146.718 L 350.193 146.718 350.193 152.712 M374.517 152.703 L 374.517 158.687 368.533 158.687 L 362.548 158.687 362.548 152.703 L 362.548 146.718 368.533 146.718 L 374.517 146.718 374.517 152.703 M172.780 209.073 L 172.780 221.815 160.471 221.917 C 151.710 221.989,148.009 221.892,147.633 221.580 C 147.067 221.110,146.812 196.946,147.367 196.391 C 147.511 196.247,153.288 196.174,160.205 196.230 L 172.780 196.332 172.780 209.073 M249.035 203.089 L 249.035 209.266 261.576 209.266 L 274.117 209.266 274.319 210.135 C 274.431 210.613,274.565 213.349,274.616 216.216 L 274.710 221.429 287.153 221.530 L 299.595 221.632 299.701 228.094 L 299.807 234.556 312.066 234.658 L 324.324 234.760 324.324 228.393 L 324.324 222.026 317.857 221.921 L 311.390 221.815 311.283 215.932 L 311.177 210.049 298.735 209.947 L 286.293 209.846 286.188 203.378 L 286.082 196.911 267.558 196.911 L 249.035 196.911 249.035 203.089 M210.232 240.927 L 210.232 246.911 160.255 247.009 C 120.529 247.087,110.216 247.008,109.972 246.623 C 109.613 246.059,109.540 236.263,109.887 235.358 C 110.100 234.803,114.783 234.755,160.177 234.844 L 210.232 234.942 210.232 240.927 M84.819 272.839 C 84.674 272.983,84.556 275.935,84.556 279.399 L 84.556 285.696 78.089 285.801 L 71.622 285.907 71.622 298.263 L 71.622 310.618 78.079 310.724 L 84.536 310.829 84.643 316.708 L 84.749 322.587 97.201 322.689 L 109.653 322.791 109.653 316.811 L 109.653 310.830 115.734 310.724 L 121.815 310.618 121.815 298.263 L 121.815 285.907 115.743 285.801 L 109.671 285.695 109.565 279.237 L 109.459 272.780 97.270 272.678 C 90.566 272.622,84.963 272.694,84.819 272.839 M147.753 272.839 C 147.609 272.983,147.490 275.940,147.490 279.408 L 147.490 285.714 141.500 285.714 L 135.511 285.714 135.612 298.166 L 135.714 310.618 141.592 310.724 L 147.470 310.831 147.577 316.709 L 147.683 322.587 160.135 322.689 L 172.587 322.791 172.587 316.810 L 172.587 310.829 179.054 310.724 L 185.521 310.618 185.521 298.263 L 185.521 285.907 179.063 285.802 L 172.605 285.696 172.500 279.238 L 172.394 272.780 160.205 272.678 C 153.501 272.622,147.898 272.694,147.753 272.839 M210.687 272.839 C 210.543 272.983,210.425 275.940,210.425 279.408 L 210.425 285.714 204.440 285.714 L 198.456 285.714 198.456 298.263 L 198.456 310.811 204.440 310.811 L 210.425 310.811 210.425 316.795 L 210.425 322.780 222.973 322.780 L 235.521 322.780 235.521 316.805 L 235.521 310.829 241.988 310.724 L 248.456 310.618 248.456 298.263 L 248.456 285.907 241.998 285.802 L 235.540 285.696 235.434 279.238 L 235.328 272.780 223.139 272.678 C 216.435 272.622,210.832 272.694,210.687 272.839 M274.430 279.054 L 274.324 285.521 267.857 285.627 L 261.390 285.733 261.390 298.263 L 261.390 310.792 267.857 310.898 L 274.324 311.004 274.431 316.892 L 274.537 322.780 286.883 322.780 L 299.228 322.780 299.228 316.805 L 299.228 310.830 305.309 310.724 L 311.390 310.618 311.390 298.263 L 311.390 285.907 305.309 285.801 L 299.228 285.695 299.228 279.141 L 299.228 272.587 286.882 272.587 L 274.536 272.587 274.430 279.054 M109.653 298.263 L 109.653 310.811 97.104 310.811 L 84.556 310.811 84.556 298.263 L 84.556 285.714 97.104 285.714 L 109.653 285.714 109.653 298.263 M172.587 298.263 L 172.587 310.811 160.039 310.811 L 147.490 310.811 147.490 298.263 L 147.490 285.714 160.039 285.714 L 172.587 285.714 172.587 298.263 M235.521 298.263 L 235.521 310.811 222.973 310.811 L 210.425 310.811 210.425 298.263 L 210.425 285.714 222.973 285.714 L 235.521 285.714 235.521 298.263 M299.421 298.263 L 299.421 310.618 286.776 310.720 L 274.131 310.821 274.131 298.263 L 274.131 285.704 286.776 285.806 L 299.421 285.907 299.421 298.263 " stroke="none" fill="#e8b477" fill-rule="evenodd"></path><path id="path2" d="M116.114 196.810 L 110.028 196.931 110.130 209.180 L 110.232 221.429 122.587 221.429 L 134.942 221.429 134.942 209.073 L 134.942 196.718 128.571 196.703 C 125.068 196.695,119.462 196.743,116.114 196.810 M147.668 197.006 C 147.564 197.277,147.525 202.882,147.581 209.463 L 147.683 221.429 160.039 221.429 L 172.394 221.429 172.394 209.073 L 172.394 196.718 160.125 196.616 C 150.469 196.536,147.816 196.619,147.668 197.006 M186.276 197.011 C 186.173 197.279,186.135 202.882,186.191 209.463 L 186.293 221.429 198.069 221.429 L 209.846 221.429 209.947 209.232 L 210.049 197.035 201.294 196.780 C 188.576 196.410,186.494 196.442,186.276 197.011 M235.907 221.815 L 235.907 246.718 280.319 246.718 L 324.731 246.718 324.624 241.023 L 324.517 235.328 311.969 235.135 L 299.421 234.942 299.315 228.480 L 299.209 222.018 286.767 221.917 L 274.324 221.815 274.131 215.830 L 273.938 209.846 261.390 209.653 L 248.842 209.459 248.736 203.185 L 248.630 196.911 242.268 196.911 L 235.907 196.911 235.907 221.815 " stroke="none" fill="#07c3d2" fill-rule="evenodd"></path><path id="path3" d="M135.369 121.846 C 135.068 122.633,135.075 125.613,135.388 129.633 L 135.636 132.819 160.675 132.819 L 185.714 132.819 185.714 127.027 L 185.714 121.236 160.659 121.236 C 138.168 121.236,135.580 121.298,135.369 121.846 M325.356 121.491 C 325.213 121.633,325.097 124.241,325.097 127.284 L 325.097 132.819 356.381 132.819 L 387.665 132.819 387.559 127.124 L 387.452 121.429 356.534 121.330 C 339.529 121.275,325.499 121.348,325.356 121.491 M122.253 135.382 C 121.942 137.653,121.943 142.608,122.256 144.498 L 122.495 145.946 128.622 145.946 L 134.749 145.946 134.749 139.768 L 134.749 133.591 128.624 133.591 L 122.499 133.591 122.253 135.382 M186.486 139.768 L 186.486 145.946 255.405 145.946 L 324.324 145.946 324.324 139.768 L 324.324 133.591 255.405 133.591 L 186.486 133.591 186.486 139.768 M388.298 133.838 C 387.920 134.217,387.976 170.744,388.356 171.343 C 388.592 171.715,390.004 171.811,394.045 171.729 L 399.421 171.622 399.421 152.703 L 399.421 133.784 393.993 133.677 C 391.008 133.618,388.446 133.691,388.298 133.838 M110.039 159.266 L 110.039 171.815 115.830 171.815 L 121.622 171.815 121.622 159.266 L 121.622 146.718 115.830 146.718 L 110.039 146.718 110.039 159.266 M198.626 159.573 C 198.520 159.848,198.482 162.671,198.541 165.847 L 198.649 171.622 261.486 171.719 L 324.324 171.817 324.324 165.445 L 324.324 159.073 261.571 159.073 C 210.588 159.073,198.782 159.167,198.626 159.573 M122.368 172.297 C 122.354 172.350,122.314 174.913,122.278 177.992 L 122.214 183.591 128.482 183.697 L 134.749 183.803 134.749 178.002 L 134.749 172.201 128.571 172.201 C 125.174 172.201,122.382 172.244,122.368 172.297 M186.486 177.982 L 186.486 183.784 192.288 183.784 L 198.090 183.784 197.983 178.089 L 197.876 172.394 192.181 172.287 L 186.486 172.180 186.486 177.982 M325.267 172.700 C 325.161 172.977,325.122 175.627,325.182 178.590 L 325.290 183.977 356.371 183.977 L 387.452 183.977 387.452 178.185 L 387.452 172.394 356.456 172.295 C 331.259 172.215,325.424 172.290,325.267 172.700 M97.174 184.422 C 97.029 184.566,96.911 187.262,96.911 190.412 L 96.911 196.139 100.483 196.138 C 102.447 196.138,108.098 196.023,113.041 195.883 L 122.028 195.629 121.921 189.996 L 121.815 184.363 109.626 184.261 C 102.922 184.205,97.318 184.277,97.174 184.422 M198.456 189.910 L 198.456 195.649 209.170 195.875 C 215.063 195.999,234.783 196.109,252.992 196.119 L 286.100 196.137 286.100 190.153 L 286.100 184.170 242.278 184.170 L 198.456 184.170 198.456 189.910 M71.686 196.782 C 71.544 196.924,71.429 199.793,71.429 203.159 L 71.429 209.277 83.880 209.175 L 96.332 209.073 96.438 202.799 L 96.544 196.525 84.244 196.525 C 77.479 196.525,71.828 196.641,71.686 196.782 M286.657 197.025 C 286.551 197.299,286.513 200.123,286.572 203.299 L 286.680 209.073 299.131 209.175 L 311.583 209.277 311.583 202.901 L 311.583 196.525 299.216 196.525 C 289.454 196.525,286.808 196.630,286.657 197.025 M59.546 215.541 L 59.653 221.429 65.251 221.429 L 70.849 221.429 70.956 215.541 L 71.063 209.653 65.251 209.653 L 59.439 209.653 59.546 215.541 M312.056 215.541 L 312.162 221.429 318.340 221.429 L 324.517 221.429 324.624 215.541 L 324.731 209.653 318.340 209.653 L 311.949 209.653 312.056 215.541 M49.376 221.908 L 46.436 222.038 46.218 225.594 C 46.098 227.550,46.046 238.793,46.101 250.579 L 46.203 272.008 52.525 272.114 C 56.990 272.189,58.935 272.359,59.147 272.693 C 59.312 272.953,59.450 281.641,59.454 291.999 L 59.459 310.831 65.154 310.725 L 70.849 310.618 70.951 297.982 L 71.053 285.347 77.515 285.241 L 83.977 285.135 83.977 278.958 L 83.977 272.780 77.606 272.587 L 71.236 272.394 71.129 266.506 L 71.022 260.618 65.659 260.618 C 62.709 260.618,60.020 260.512,59.684 260.383 C 59.139 260.174,59.073 258.149,59.073 241.496 C 59.073 231.237,58.968 222.568,58.839 222.232 C 58.596 221.600,57.304 221.555,49.376 221.908 M325.288 222.065 C 325.171 222.370,325.124 225.305,325.183 228.588 L 325.290 234.556 331.081 234.556 L 336.873 234.556 336.979 228.282 L 337.085 222.008 334.238 222.008 C 332.672 222.008,330.066 221.896,328.446 221.759 C 326.076 221.558,325.460 221.618,325.288 222.065 M337.452 240.927 L 337.452 246.718 343.822 246.718 L 350.193 246.718 350.193 240.927 L 350.193 235.135 343.822 235.135 L 337.452 235.135 337.452 240.927 M350.579 259.653 L 350.579 272.201 356.371 272.201 L 362.162 272.201 362.162 259.653 L 362.162 247.104 356.371 247.104 L 350.579 247.104 350.579 259.653 M84.813 260.875 C 84.672 261.017,84.556 263.533,84.556 266.466 C 84.556 272.947,82.926 272.255,97.876 272.116 L 109.459 272.008 109.566 266.313 L 109.673 260.618 97.372 260.618 C 90.606 260.618,84.955 260.734,84.813 260.875 M147.748 260.875 C 147.606 261.017,147.490 263.533,147.490 266.466 C 147.490 272.947,145.861 272.255,160.811 272.116 L 172.394 272.008 172.501 266.313 L 172.608 260.618 160.306 260.618 C 153.541 260.618,147.889 260.734,147.748 260.875 M210.682 260.875 C 210.541 261.017,210.425 263.533,210.425 266.466 C 210.425 272.947,208.795 272.255,223.745 272.116 L 235.328 272.008 235.435 266.313 L 235.542 260.618 223.241 260.618 C 216.475 260.618,210.824 260.734,210.682 260.875 M274.604 266.313 L 274.710 272.008 286.873 272.008 L 299.035 272.008 299.142 266.313 L 299.248 260.618 286.873 260.618 L 274.497 260.618 274.604 266.313 M110.425 278.947 L 110.425 285.328 115.734 285.322 C 122.576 285.315,122.050 285.875,121.922 278.735 L 121.815 272.780 116.120 272.673 L 110.425 272.566 110.425 278.947 M135.695 273.076 C 135.588 273.356,135.548 276.185,135.607 279.361 L 135.714 285.135 141.313 285.135 L 146.911 285.135 146.911 278.958 L 146.911 272.780 141.401 272.673 C 137.114 272.589,135.848 272.679,135.695 273.076 M173.359 278.958 L 173.359 285.348 179.440 285.241 L 185.521 285.135 185.521 278.958 L 185.521 272.780 179.440 272.674 L 173.359 272.567 173.359 278.958 M198.630 273.076 C 198.522 273.356,198.482 276.185,198.541 279.361 L 198.649 285.135 204.247 285.135 L 209.846 285.135 209.846 278.958 L 209.846 272.780 204.336 272.673 C 200.048 272.589,198.782 272.679,198.630 273.076 M236.293 278.958 L 236.293 285.348 242.375 285.241 L 248.456 285.135 248.456 278.958 L 248.456 272.780 242.375 272.674 L 236.293 272.567 236.293 278.958 M261.560 273.086 C 261.455 273.361,261.417 276.185,261.476 279.361 L 261.583 285.135 267.568 285.135 L 273.552 285.135 273.658 278.861 L 273.764 272.587 267.758 272.587 C 263.200 272.587,261.706 272.707,261.560 273.086 M300.087 278.851 L 300.193 285.135 305.792 285.135 L 311.390 285.135 311.390 278.958 L 311.390 272.780 305.685 272.673 L 299.981 272.566 300.087 278.851 M325.359 272.839 C 325.215 272.983,325.097 275.853,325.097 279.215 L 325.097 285.328 337.654 285.328 L 350.212 285.328 350.106 279.054 L 350.000 272.780 337.811 272.678 C 331.107 272.622,325.504 272.694,325.359 272.839 M122.569 286.201 C 122.466 286.468,122.428 292.071,122.485 298.652 L 122.587 310.618 128.668 310.724 L 134.749 310.830 134.749 298.272 L 134.749 285.714 128.752 285.714 C 124.286 285.714,122.708 285.838,122.569 286.201 M186.486 298.263 L 186.486 310.811 192.085 310.811 L 197.683 310.811 197.683 298.263 L 197.683 285.714 192.085 285.714 L 186.486 285.714 186.486 298.263 M249.421 298.252 L 249.421 310.811 255.025 310.811 L 260.628 310.811 260.527 298.359 L 260.425 285.907 254.923 285.800 L 249.421 285.693 249.421 298.252 M312.148 286.191 C 312.043 286.464,312.004 292.071,312.060 298.652 L 312.162 310.618 318.442 310.724 L 324.721 310.830 324.619 298.369 L 324.517 285.907 318.428 285.801 C 313.745 285.719,312.295 285.809,312.148 286.191 M71.602 311.688 C 71.494 311.969,71.454 314.623,71.514 317.586 L 71.622 322.973 77.799 322.973 L 83.977 322.973 83.977 317.181 L 83.977 311.390 77.887 311.284 C 73.115 311.200,71.756 311.288,71.602 311.688 M110.425 317.181 L 110.425 323.187 116.120 323.080 L 121.815 322.973 121.815 317.181 L 121.815 311.390 116.120 311.283 L 110.425 311.176 110.425 317.181 M135.785 311.476 C 135.423 312.076,135.108 322.214,135.436 322.694 C 135.690 323.066,137.155 323.161,141.342 323.081 L 146.911 322.973 146.911 317.181 L 146.911 311.390 141.438 311.283 C 138.429 311.224,135.884 311.311,135.785 311.476 M173.359 317.181 L 173.359 323.186 179.440 323.079 L 185.521 322.973 185.521 317.181 L 185.521 311.390 179.440 311.284 L 173.359 311.177 173.359 317.181 M198.552 311.447 C 197.997 311.677,197.855 321.844,198.395 322.694 C 198.631 323.066,200.080 323.162,204.277 323.081 L 209.846 322.973 209.846 317.181 L 209.846 311.390 204.440 311.319 C 201.467 311.279,198.818 311.337,198.552 311.447 M236.293 317.181 L 236.293 323.186 242.375 323.079 L 248.456 322.973 248.456 317.181 L 248.456 311.390 242.375 311.284 L 236.293 311.177 236.293 317.181 M261.475 311.516 C 261.104 311.757,261.008 313.210,261.089 317.404 L 261.197 322.973 267.481 323.079 L 273.765 323.185 273.659 317.288 L 273.552 311.390 267.761 311.294 C 264.575 311.241,261.747 311.341,261.475 311.516 M300.268 311.444 C 300.120 311.591,300.000 314.294,300.000 317.449 L 300.000 323.187 305.695 323.080 L 311.390 322.973 311.390 317.181 L 311.390 311.390 305.963 311.283 C 302.977 311.225,300.415 311.297,300.268 311.444 M84.643 329.826 L 84.749 336.100 97.201 336.202 L 109.653 336.304 109.653 329.928 L 109.653 323.552 97.095 323.552 L 84.537 323.552 84.643 329.826 M147.577 329.826 L 147.683 336.100 160.039 336.100 L 172.394 336.100 172.500 329.826 L 172.606 323.552 160.039 323.552 L 147.471 323.552 147.577 329.826 M210.512 329.826 L 210.618 336.100 222.973 336.100 L 235.328 336.100 235.434 329.826 L 235.540 323.552 222.973 323.552 L 210.406 323.552 210.512 329.826 M274.301 324.052 C 274.196 324.326,274.158 327.150,274.217 330.326 L 274.324 336.100 286.776 336.202 L 299.228 336.304 299.228 329.928 L 299.228 323.552 286.860 323.552 C 277.099 323.552,274.453 323.657,274.301 324.052 " stroke="none" fill="#050505" fill-rule="evenodd"></path><path id="path4" d="M135.222 152.606 L 135.328 158.494 160.521 158.594 L 185.714 158.693 185.714 152.705 L 185.714 146.718 160.415 146.718 L 135.115 146.718 135.222 152.606 M337.152 152.606 L 337.259 158.494 343.726 158.600 L 350.193 158.706 350.193 152.712 L 350.193 146.718 343.619 146.718 L 337.046 146.718 337.152 152.606 M362.548 152.703 L 362.548 158.687 368.533 158.687 L 374.517 158.687 374.517 152.703 L 374.517 146.718 368.533 146.718 L 362.548 146.718 362.548 152.703 M109.887 235.358 C 109.540 236.263,109.613 246.059,109.972 246.623 C 110.216 247.008,120.529 247.087,160.255 247.009 L 210.232 246.911 210.232 240.927 L 210.232 234.942 160.177 234.844 C 114.783 234.755,110.100 234.803,109.887 235.358 M84.556 298.263 L 84.556 310.811 97.104 310.811 L 109.653 310.811 109.653 298.263 L 109.653 285.714 97.104 285.714 L 84.556 285.714 84.556 298.263 M147.490 298.263 L 147.490 310.811 160.039 310.811 L 172.587 310.811 172.587 298.263 L 172.587 285.714 160.039 285.714 L 147.490 285.714 147.490 298.263 M210.425 298.263 L 210.425 310.811 222.973 310.811 L 235.521 310.811 235.521 298.263 L 235.521 285.714 222.973 285.714 L 210.425 285.714 210.425 298.263 M274.131 298.263 L 274.131 310.821 286.776 310.720 L 299.421 310.618 299.421 298.263 L 299.421 285.907 286.776 285.806 L 274.131 285.704 274.131 298.263 " stroke="none" fill="#f434b4" fill-rule="evenodd"></path><path id="path5" d="M113.049 196.813 C 114.811 196.884,117.591 196.884,119.227 196.812 C 120.862 196.740,119.421 196.681,116.023 196.681 C 112.625 196.682,111.287 196.741,113.049 196.813 M201.255 196.812 C 202.901 196.884,205.594 196.884,207.239 196.812 C 208.885 196.740,207.539 196.680,204.247 196.680 C 200.956 196.680,199.609 196.740,201.255 196.812 M238.900 196.812 C 240.652 196.884,243.518 196.884,245.270 196.812 C 247.022 196.741,245.589 196.682,242.085 196.682 C 238.581 196.682,237.148 196.741,238.900 196.812 " stroke="none" fill="#04949c" fill-rule="evenodd"></path><path id="path6" d="M399.803 66.409 C 399.803 103.041,399.848 118.026,399.903 99.710 C 399.959 81.395,399.959 51.424,399.903 33.108 C 399.848 14.792,399.803 29.778,399.803 66.409 M135.393 133.462 C 135.251 133.604,135.135 136.553,135.135 140.016 L 135.135 146.313 128.957 146.434 L 122.779 146.555 129.054 146.540 L 135.328 146.525 135.434 140.055 L 135.540 133.585 160.531 133.684 L 185.521 133.784 185.627 140.252 L 185.733 146.720 255.318 146.623 L 324.903 146.525 325.097 140.154 L 325.290 133.784 356.430 133.784 C 373.558 133.784,387.491 133.653,387.392 133.494 C 387.069 132.971,325.700 133.142,325.174 133.668 C 324.852 133.989,324.710 136.002,324.710 140.232 L 324.710 146.332 255.405 146.332 L 186.100 146.332 186.100 140.232 C 186.100 136.002,185.958 133.989,185.637 133.668 C 185.132 133.163,135.893 132.961,135.393 133.462 M122.091 159.170 C 122.045 166.125,122.138 171.815,122.297 171.815 C 122.457 171.815,122.543 168.123,122.488 163.610 C 122.301 148.001,122.173 146.577,122.091 159.170 M324.633 164.961 C 324.697 168.412,324.871 171.358,325.019 171.507 C 325.168 171.656,325.238 168.833,325.175 165.233 C 325.113 161.633,324.939 158.687,324.789 158.687 C 324.640 158.686,324.570 161.510,324.633 164.961 M134.942 177.914 L 134.942 183.977 128.475 184.083 L 122.008 184.189 122.008 190.164 C 122.008 193.450,122.138 196.139,122.297 196.139 C 122.457 196.140,122.587 193.577,122.587 190.444 L 122.587 184.749 128.958 184.556 L 135.328 184.363 135.435 178.408 C 135.494 175.133,135.407 172.318,135.242 172.153 C 135.077 171.987,134.942 174.580,134.942 177.914 M185.801 178.089 L 185.907 184.363 191.785 184.469 L 197.663 184.576 197.781 190.454 L 197.898 196.332 197.984 190.251 L 198.069 184.170 192.067 184.170 L 186.064 184.170 186.178 177.992 C 186.242 174.594,186.159 171.814,185.994 171.814 C 185.830 171.814,185.743 174.638,185.801 178.089 M399.804 279.151 C 399.804 338.079,399.849 362.186,399.903 332.722 C 399.958 303.258,399.958 255.043,399.903 225.579 C 399.849 196.115,399.804 220.222,399.804 279.151 M135.135 208.803 L 135.328 221.429 135.430 209.098 C 135.486 202.316,135.399 196.635,135.237 196.472 C 135.075 196.310,135.029 201.858,135.135 208.803 M147.280 196.625 C 147.177 196.893,147.139 202.583,147.196 209.270 L 147.298 221.429 147.491 208.784 C 147.597 201.829,147.635 196.139,147.575 196.139 C 147.515 196.139,147.382 196.358,147.280 196.625 M96.911 202.625 C 96.911 206.855,96.769 208.868,96.448 209.189 C 96.107 209.530,92.744 209.653,83.717 209.653 L 71.449 209.653 71.342 215.541 L 71.236 221.429 65.251 221.622 L 59.266 221.815 59.266 240.927 L 59.266 260.039 65.251 260.232 L 71.236 260.425 71.342 266.329 C 71.418 270.545,71.584 272.285,71.921 272.414 C 72.181 272.514,80.734 272.637,90.927 272.688 L 109.459 272.780 109.565 279.247 C 109.624 282.804,109.797 285.715,109.951 285.715 C 110.106 285.715,110.180 282.761,110.118 279.151 L 110.003 272.587 116.023 272.587 L 122.042 272.587 121.928 279.247 L 121.815 285.907 128.475 285.794 L 135.135 285.680 135.135 298.245 C 135.135 305.500,135.283 310.811,135.485 310.811 C 135.678 310.811,135.775 310.507,135.702 310.135 C 135.628 309.764,135.469 301.155,135.347 291.005 L 135.126 272.551 141.405 272.665 L 147.683 272.780 147.561 266.506 L 147.438 260.232 160.013 260.232 L 172.587 260.232 172.587 266.216 L 172.587 272.201 160.328 272.289 L 148.069 272.377 160.232 272.579 L 172.394 272.780 172.500 279.247 C 172.558 282.804,172.732 285.715,172.886 285.715 C 173.040 285.715,173.115 282.757,173.052 279.142 L 172.938 272.568 179.422 272.674 L 185.907 272.780 186.014 278.748 C 186.073 282.031,186.025 284.968,185.907 285.275 C 185.576 286.137,185.483 310.761,185.811 310.558 C 185.970 310.460,186.100 304.830,186.100 298.047 L 186.100 285.714 192.080 285.714 L 198.059 285.714 198.197 298.166 C 198.273 305.014,198.276 302.063,198.203 291.606 L 198.071 272.595 216.700 272.687 L 235.328 272.780 235.434 279.247 C 235.492 282.804,235.666 285.715,235.820 285.715 C 235.974 285.715,236.049 282.761,235.986 279.151 L 235.872 272.587 242.260 272.587 L 248.649 272.587 248.552 291.662 C 248.499 302.153,248.586 310.657,248.745 310.558 C 248.904 310.460,249.035 304.830,249.035 298.047 L 249.035 285.714 255.014 285.714 L 260.993 285.714 261.131 298.166 C 261.207 305.014,261.208 302.061,261.134 291.602 L 260.998 272.587 267.582 272.587 L 274.166 272.587 274.052 279.114 C 273.990 282.705,274.069 285.561,274.228 285.462 C 274.387 285.363,274.517 282.426,274.517 278.935 L 274.517 272.587 286.873 272.587 L 299.228 272.587 299.228 279.151 C 299.228 282.761,299.358 285.715,299.517 285.715 C 299.677 285.715,299.756 282.761,299.693 279.151 L 299.579 272.587 305.598 272.587 L 311.617 272.587 311.504 279.247 L 311.390 285.907 317.568 285.798 C 320.965 285.738,323.958 285.615,324.218 285.524 C 324.559 285.406,324.721 283.606,324.797 279.070 L 324.903 272.780 337.452 272.587 L 350.000 272.394 350.102 259.758 L 350.204 247.123 343.731 247.017 L 337.259 246.911 337.066 240.927 L 336.873 234.942 330.888 234.749 L 324.903 234.556 324.798 228.098 L 324.692 221.640 318.234 221.534 L 311.776 221.429 311.670 215.546 L 311.563 209.663 299.121 209.561 L 286.680 209.459 286.574 202.992 L 286.468 196.525 267.655 196.618 L 248.842 196.711 267.462 196.815 L 286.082 196.919 286.188 203.382 L 286.293 209.846 298.735 209.947 L 311.177 210.049 311.283 215.932 L 311.390 221.815 317.857 221.921 L 324.324 222.026 324.324 228.163 C 324.324 236.293,323.653 235.521,330.726 235.521 L 336.659 235.521 336.766 241.409 L 336.873 247.297 343.340 247.403 L 349.807 247.509 349.807 259.662 L 349.807 271.815 337.529 271.815 C 328.494 271.815,325.129 271.937,324.788 272.278 C 324.466 272.599,324.324 274.612,324.324 278.842 L 324.324 284.942 318.340 284.942 L 312.355 284.942 312.355 278.985 C 312.355 271.341,312.803 271.815,305.581 271.815 L 300.020 271.815 299.914 265.927 L 299.807 260.039 286.873 260.039 L 273.938 260.039 273.832 265.927 L 273.725 271.815 267.635 271.815 C 260.047 271.815,260.618 271.243,260.618 278.842 L 260.618 284.942 255.019 284.942 L 249.421 284.942 249.421 278.778 C 249.421 271.283,249.979 271.815,242.110 271.815 L 236.293 271.815 236.288 266.313 C 236.280 259.064,237.856 259.817,222.947 259.937 L 210.232 260.039 210.125 265.927 L 210.018 271.815 204.314 271.815 C 197.170 271.815,197.683 271.270,197.683 278.842 L 197.683 284.942 192.085 284.942 L 186.486 284.942 186.486 278.842 C 186.486 271.242,187.059 271.815,179.459 271.815 L 173.359 271.815 173.353 266.313 C 173.345 259.064,174.922 259.817,160.013 259.937 L 147.297 260.039 147.191 265.927 L 147.084 271.815 141.380 271.815 C 134.235 271.815,134.749 271.270,134.749 278.842 L 134.749 284.942 128.571 284.942 L 122.394 284.942 122.394 278.613 C 122.394 271.116,123.070 271.815,115.809 271.815 L 110.445 271.815 110.338 265.927 L 110.232 260.039 97.297 260.039 L 84.363 260.039 84.256 265.927 L 84.150 271.815 77.992 271.815 L 71.835 271.815 71.728 265.927 L 71.622 260.039 65.637 259.846 L 59.653 259.653 59.653 240.927 L 59.653 222.201 65.637 222.008 L 71.622 221.815 71.728 215.927 L 71.835 210.039 84.103 210.039 C 93.130 210.039,96.493 209.916,96.834 209.575 C 97.155 209.254,97.297 207.244,97.297 203.021 L 97.297 196.930 103.571 196.814 L 109.846 196.698 103.378 196.611 L 96.911 196.525 96.911 202.625 M216.723 196.814 C 220.294 196.878,226.027 196.878,229.465 196.814 C 232.902 196.750,229.981 196.698,222.973 196.698 C 215.965 196.698,213.153 196.750,216.723 196.814 M274.203 215.518 C 274.163 218.637,274.262 221.271,274.421 221.370 C 274.580 221.469,274.665 219.785,274.608 217.628 C 274.424 210.531,274.275 209.757,274.203 215.518 M109.986 221.724 C 110.148 221.886,115.830 221.973,122.612 221.916 L 134.942 221.814 122.316 221.621 C 115.372 221.515,109.823 221.561,109.986 221.724 M160.232 221.622 L 147.683 221.831 160.112 221.919 C 168.079 221.976,172.627 221.869,172.780 221.622 C 172.911 221.409,172.965 221.275,172.899 221.324 C 172.834 221.373,167.133 221.507,160.232 221.622 M185.967 221.718 C 186.065 221.877,191.512 222.008,198.069 222.008 C 204.627 222.008,210.074 221.877,210.172 221.718 C 210.270 221.559,204.824 221.429,198.069 221.429 C 191.315 221.429,185.869 221.559,185.967 221.718 M109.804 260.842 C 109.933 261.178,110.039 263.871,110.039 266.827 L 110.039 272.201 97.297 272.201 L 84.556 272.201 84.556 266.216 L 84.556 260.232 97.063 260.232 C 108.111 260.232,109.597 260.303,109.804 260.842 M235.521 266.216 L 235.521 272.201 222.973 272.201 L 210.425 272.201 210.425 266.216 L 210.425 260.232 222.973 260.232 L 235.521 260.232 235.521 266.216 M299.527 266.313 L 299.634 272.201 286.883 272.201 L 274.131 272.201 274.131 266.474 C 274.131 263.324,274.249 260.628,274.394 260.484 C 274.538 260.339,280.229 260.267,287.039 260.323 L 299.421 260.425 299.527 266.313 M109.653 316.806 L 109.653 322.801 97.104 322.694 C 90.202 322.635,84.556 322.720,84.556 322.882 C 84.556 323.044,90.246 323.131,97.201 323.075 L 109.846 322.973 110.039 316.891 C 110.145 313.546,110.101 310.810,109.942 310.810 C 109.783 310.811,109.653 313.509,109.653 316.806 M172.587 316.806 L 172.587 322.801 160.038 322.694 C 153.137 322.635,147.490 322.720,147.490 322.882 C 147.490 323.044,153.181 323.131,160.135 323.075 L 172.780 322.973 172.973 316.891 C 173.079 313.546,173.036 310.810,172.876 310.810 C 172.717 310.811,172.587 313.509,172.587 316.806 M235.593 316.699 C 235.665 322.667,235.813 321.963,235.998 314.767 C 236.054 312.590,235.970 310.810,235.811 310.810 C 235.652 310.810,235.553 313.460,235.593 316.699 M274.053 317.025 L 274.168 323.166 286.873 323.166 L 299.577 323.166 299.692 316.988 C 299.755 313.590,299.677 310.810,299.517 310.810 C 299.358 310.811,299.228 313.504,299.228 316.795 L 299.228 322.780 286.873 322.780 L 274.517 322.780 274.517 317.011 C 274.517 313.838,274.387 311.162,274.228 311.063 C 274.069 310.964,273.990 313.647,274.053 317.025 M216.723 323.069 C 220.294 323.133,226.027 323.133,229.465 323.069 C 232.902 323.005,229.981 322.953,222.973 322.953 C 215.965 322.953,213.153 323.005,216.723 323.069 " stroke="none" fill="#8c724b" fill-rule="evenodd"></path><path id="path7" d="M143.533 121.134 C 144.648 121.212,146.472 121.212,147.587 121.134 C 148.702 121.056,147.790 120.992,145.560 120.992 C 143.330 120.992,142.418 121.056,143.533 121.134 M158.591 121.134 C 159.706 121.212,161.530 121.212,162.645 121.134 C 163.760 121.056,162.847 120.992,160.618 120.992 C 158.388 120.992,157.476 121.056,158.591 121.134 M173.649 121.134 C 174.764 121.212,176.588 121.212,177.703 121.134 C 178.818 121.056,177.905 120.992,175.676 120.992 C 173.446 120.992,172.534 121.056,173.649 121.134 M325.193 121.105 C 324.836 121.249,324.710 122.851,324.710 127.251 L 324.710 133.203 255.502 133.300 L 186.293 133.398 186.293 139.768 L 186.293 146.139 255.405 146.139 L 324.517 146.139 324.623 139.672 L 324.729 133.205 356.380 133.205 C 373.788 133.205,388.031 133.335,388.031 133.494 C 388.031 133.653,390.637 133.784,393.822 133.784 C 397.008 133.784,399.614 133.653,399.614 133.494 C 399.614 133.335,397.008 133.205,393.822 133.205 L 388.031 133.205 388.031 127.490 C 388.031 120.764,388.062 120.824,384.575 120.918 L 382.046 120.986 384.749 121.207 L 387.452 121.429 387.559 127.124 L 387.665 132.819 356.371 132.819 L 325.076 132.819 325.183 127.124 L 325.290 121.429 327.606 121.204 L 329.923 120.979 327.799 120.945 C 326.631 120.926,325.458 120.998,325.193 121.105 M338.900 121.134 C 340.014 121.212,341.839 121.212,342.954 121.134 C 344.069 121.056,343.156 120.992,340.927 120.992 C 338.697 120.992,337.785 121.056,338.900 121.134 M353.958 121.134 C 355.072 121.212,356.897 121.212,358.012 121.134 C 359.126 121.056,358.214 120.992,355.985 120.992 C 353.755 120.992,352.843 121.056,353.958 121.134 M369.015 121.134 C 370.130 121.212,371.955 121.212,373.069 121.134 C 374.184 121.056,373.272 120.992,371.042 120.992 C 368.813 120.992,367.901 121.056,369.015 121.134 M185.799 126.931 L 185.714 132.819 160.637 132.819 L 135.560 132.819 135.420 130.598 L 135.281 128.378 135.208 130.792 L 135.135 133.205 160.437 133.205 C 180.801 133.205,185.776 133.107,185.931 132.704 C 186.036 132.429,186.069 129.693,186.003 126.623 L 185.884 121.042 185.799 126.931 M122.158 133.756 C 122.042 134.059,122.024 134.710,122.118 135.204 C 122.249 135.892,122.301 135.811,122.341 134.855 L 122.394 133.610 128.668 133.494 L 134.942 133.377 128.656 133.291 C 123.509 133.220,122.331 133.305,122.158 133.756 M324.324 139.768 L 324.324 145.946 255.405 145.946 L 186.486 145.946 186.486 139.768 L 186.486 133.591 255.405 133.591 L 324.324 133.591 324.324 139.768 M134.834 139.865 L 134.749 145.946 128.597 145.946 L 122.445 145.946 122.284 144.884 C 122.135 143.896,122.119 143.909,122.066 145.077 L 122.008 146.332 128.390 146.332 C 135.923 146.332,135.192 147.076,135.038 139.558 L 134.920 133.784 134.834 139.865 M109.828 146.818 C 109.725 147.085,109.687 152.862,109.743 159.656 L 109.846 172.008 115.734 172.023 L 121.622 172.039 115.831 171.917 L 110.039 171.795 110.039 159.266 L 110.039 146.738 115.927 146.621 L 121.815 146.503 115.915 146.418 C 111.465 146.353,109.969 146.451,109.828 146.818 M324.410 165.543 L 324.324 171.819 261.390 171.720 C 226.776 171.666,198.456 171.752,198.456 171.911 C 198.456 172.470,324.326 172.261,324.540 171.702 C 324.645 171.428,324.678 168.517,324.614 165.235 L 324.496 159.266 324.410 165.543 M388.130 171.429 C 388.303 172.066,398.670 172.525,399.276 171.923 C 399.442 171.757,397.126 171.675,394.130 171.739 C 389.981 171.829,388.597 171.737,388.327 171.353 C 388.051 170.962,388.007 170.979,388.130 171.429 M324.710 177.969 C 324.710 181.142,324.841 183.819,325.000 183.917 C 325.159 184.016,325.290 181.420,325.290 178.148 C 325.290 174.877,325.159 172.201,325.000 172.201 C 324.841 172.201,324.710 174.797,324.710 177.969 M387.452 178.185 C 387.452 181.436,387.582 184.016,387.741 183.917 C 387.901 183.819,388.031 181.239,388.031 178.185 C 388.031 175.131,387.901 172.552,387.741 172.453 C 387.582 172.355,387.452 174.934,387.452 178.185 M134.902 177.992 C 134.902 181.071,134.962 182.331,135.036 180.792 C 135.109 179.252,135.109 176.733,135.036 175.193 C 134.962 173.653,134.902 174.913,134.902 177.992 M186.254 177.992 C 186.254 181.071,186.314 182.331,186.387 180.792 C 186.460 179.252,186.460 176.733,186.387 175.193 C 186.314 173.653,186.254 174.913,186.254 177.992 M122.147 177.606 C 122.147 179.624,122.212 180.449,122.292 179.440 C 122.371 178.431,122.371 176.781,122.292 175.772 C 122.212 174.764,122.147 175.589,122.147 177.606 M198.217 182.432 L 198.263 183.977 200.000 184.008 L 201.737 184.040 200.119 183.892 C 198.572 183.750,198.492 183.679,198.335 182.316 L 198.170 180.888 198.217 182.432 M106.094 184.069 C 107.216 184.147,108.953 184.146,109.955 184.067 C 110.957 183.988,110.039 183.924,107.915 183.925 C 105.792 183.926,104.972 183.991,106.094 184.069 M119.305 183.935 C 119.305 184.018,119.901 184.155,120.629 184.240 C 121.358 184.325,121.869 184.257,121.765 184.089 C 121.578 183.787,119.305 183.644,119.305 183.935 M211.100 184.068 C 212.215 184.146,214.040 184.146,215.154 184.068 C 216.269 183.990,215.357 183.927,213.127 183.927 C 210.898 183.927,209.986 183.990,211.100 184.068 M226.158 184.068 C 227.273 184.146,229.097 184.146,230.212 184.068 C 231.327 183.990,230.415 183.927,228.185 183.927 C 225.956 183.927,225.043 183.990,226.158 184.068 M241.216 184.068 C 242.331 184.146,244.155 184.146,245.270 184.068 C 246.385 183.990,245.473 183.927,243.243 183.927 C 241.014 183.927,240.101 183.990,241.216 184.068 M256.274 184.068 C 257.389 184.146,259.213 184.146,260.328 184.068 C 261.443 183.990,260.531 183.927,258.301 183.927 C 256.071 183.927,255.159 183.990,256.274 184.068 M271.345 184.069 C 272.467 184.147,274.204 184.146,275.206 184.067 C 276.208 183.988,275.290 183.924,273.166 183.925 C 271.042 183.926,270.223 183.991,271.345 184.069 M96.525 190.154 L 96.525 196.139 83.977 196.139 C 77.075 196.139,71.428 196.269,71.428 196.429 C 71.428 196.588,77.118 196.631,84.073 196.525 L 96.718 196.332 96.911 190.250 C 97.017 186.905,96.974 184.169,96.815 184.169 C 96.655 184.170,96.525 186.863,96.525 190.154 M286.257 190.154 C 286.257 193.552,286.316 194.890,286.388 193.128 C 286.460 191.366,286.459 188.586,286.387 186.951 C 286.315 185.315,286.256 186.757,286.257 190.154 M110.038 196.042 C 110.037 196.202,111.905 196.286,114.188 196.231 C 121.607 196.049,122.329 195.897,116.120 195.824 C 112.775 195.785,110.038 195.883,110.038 196.042 M200.193 196.012 C 204.852 196.292,210.040 196.308,210.039 196.042 C 210.039 195.883,207.389 195.785,204.151 195.824 C 200.912 195.864,199.131 195.948,200.193 196.012 M235.907 196.042 C 235.907 196.202,238.774 196.332,242.278 196.332 C 245.782 196.332,248.649 196.202,248.649 196.042 C 248.649 195.883,245.782 195.753,242.278 195.753 C 238.774 195.753,235.907 195.883,235.907 196.042 M286.742 196.423 C 286.642 196.585,292.186 196.670,299.062 196.611 L 311.564 196.504 311.670 202.982 L 311.776 209.459 318.262 209.565 L 324.748 209.671 324.633 215.643 C 324.561 219.376,324.662 221.670,324.903 221.763 C 325.156 221.860,325.223 219.755,325.097 215.685 L 324.903 209.459 318.446 209.354 L 311.988 209.248 311.882 202.790 L 311.776 196.332 299.350 196.230 C 292.516 196.174,286.843 196.261,286.742 196.423 M71.118 206.274 L 71.042 209.266 65.239 209.266 C 60.943 209.266,59.392 209.392,59.268 209.749 C 58.890 210.837,58.889 222.238,59.266 221.885 C 59.502 221.666,59.607 219.203,59.537 215.589 L 59.422 209.653 65.244 209.653 C 71.911 209.653,71.532 209.883,71.330 205.946 L 71.194 203.282 71.118 206.274 M46.019 224.035 L 46.092 226.448 46.231 224.244 L 46.370 222.040 49.343 221.908 L 52.317 221.777 49.131 221.699 L 45.946 221.622 46.019 224.035 M331.178 221.906 C 332.292 221.984,334.117 221.984,335.232 221.906 C 336.347 221.828,335.434 221.764,333.205 221.764 C 330.975 221.764,330.063 221.828,331.178 221.906 M46.087 237.645 C 46.088 239.768,46.153 240.588,46.231 239.466 C 46.309 238.344,46.308 236.606,46.229 235.605 C 46.150 234.603,46.086 235.521,46.087 237.645 M340.656 235.037 C 342.525 235.108,345.478 235.107,347.220 235.036 C 348.961 234.965,347.432 234.907,343.822 234.907 C 340.212 234.907,338.787 234.966,340.656 235.037 M350.357 244.015 C 350.384 246.742,350.437 246.914,351.261 246.963 C 351.956 247.003,351.979 246.978,351.374 246.841 C 350.720 246.693,350.592 246.277,350.470 243.894 L 350.328 241.120 350.357 244.015 M362.162 259.642 L 362.162 272.181 356.274 272.298 L 350.386 272.415 356.467 272.501 L 362.548 272.587 362.548 259.846 C 362.548 252.838,362.461 247.104,362.355 247.104 C 362.249 247.104,362.162 252.746,362.162 259.642 M46.087 252.703 C 46.088 254.826,46.153 255.646,46.231 254.524 C 46.309 253.402,46.308 251.664,46.229 250.663 C 46.150 249.661,46.086 250.579,46.087 252.703 M46.087 267.761 C 46.088 269.884,46.153 270.704,46.231 269.582 C 46.309 268.460,46.308 266.722,46.229 265.721 C 46.150 264.719,46.086 265.637,46.087 267.761 M45.945 272.288 C 45.946 272.442,48.856 272.616,52.413 272.674 L 58.880 272.780 59.073 291.892 L 59.266 311.004 65.154 311.110 C 68.393 311.169,71.043 311.082,71.043 310.917 C 71.043 310.753,68.437 310.670,65.252 310.734 L 59.459 310.850 59.454 292.008 C 59.450 281.645,59.315 272.957,59.153 272.702 C 58.826 272.189,45.945 271.785,45.945 272.288 M350.190 275.983 L 350.380 279.344 350.497 276.291 C 350.561 274.613,350.476 273.100,350.307 272.931 C 350.138 272.761,350.085 274.134,350.190 275.983 M110.195 278.958 C 110.195 282.355,110.254 283.693,110.326 281.931 C 110.398 280.169,110.397 277.390,110.325 275.754 C 110.253 274.118,110.194 275.560,110.195 278.958 M173.129 278.958 C 173.130 282.355,173.189 283.693,173.261 281.931 C 173.332 280.169,173.332 277.390,173.260 275.754 C 173.187 274.118,173.129 275.560,173.129 278.958 M236.064 278.958 C 236.064 282.355,236.123 283.693,236.195 281.931 C 236.267 280.169,236.266 277.390,236.194 275.754 C 236.122 274.118,236.063 275.560,236.064 278.958 M299.687 278.838 C 299.647 282.170,299.744 284.978,299.903 285.077 C 300.063 285.176,300.147 283.405,300.091 281.142 C 299.904 273.550,299.760 272.734,299.687 278.838 M324.903 285.552 C 324.654 285.656,324.555 290.166,324.624 298.280 L 324.731 310.847 318.399 310.732 C 314.511 310.662,311.936 310.767,311.728 311.004 C 311.317 311.473,311.270 323.168,311.680 322.914 C 311.839 322.815,311.969 320.143,311.969 316.975 L 311.969 311.216 318.436 311.110 L 324.903 311.004 325.005 298.364 L 325.107 285.725 337.747 285.618 L 350.386 285.510 337.838 285.450 C 330.936 285.416,325.116 285.462,324.903 285.552 M134.921 298.263 C 134.921 305.058,134.974 307.783,135.038 304.319 C 135.102 300.855,135.102 295.295,135.038 291.964 C 134.974 288.633,134.921 291.467,134.921 298.263 M186.285 298.456 L 186.293 311.004 192.085 311.020 L 197.876 311.037 192.187 310.914 L 186.497 310.790 186.387 298.349 L 186.277 285.907 186.285 298.456 M249.126 298.552 C 249.076 305.507,248.904 311.197,248.745 311.197 C 248.586 311.197,248.456 313.873,248.456 317.145 C 248.456 320.416,248.586 323.012,248.745 322.913 C 248.904 322.815,249.035 320.138,249.035 316.966 L 249.035 311.197 254.923 311.112 L 260.811 311.026 255.121 310.908 L 249.432 310.790 249.324 298.349 L 249.217 285.907 249.126 298.552 M122.393 310.907 C 122.393 311.067,125.217 311.164,128.668 311.124 C 134.980 311.050,134.231 310.908,126.544 310.719 C 124.260 310.664,122.393 310.748,122.393 310.907 M71.204 311.720 C 71.093 312.008,71.057 313.355,71.124 314.712 L 71.246 317.181 71.434 314.188 C 71.622 311.193,71.580 310.740,71.204 311.720 M135.193 314.189 C 135.252 317.235,135.405 316.874,135.604 313.224 C 135.665 312.109,135.584 311.197,135.425 311.197 C 135.265 311.197,135.161 312.543,135.193 314.189 M185.521 317.181 C 185.521 320.473,185.652 323.166,185.811 323.166 C 185.970 323.166,186.100 320.473,186.100 317.181 C 186.100 313.890,185.970 311.197,185.811 311.197 C 185.652 311.197,185.521 313.890,185.521 317.181 M299.783 311.698 C 299.678 311.974,299.640 314.623,299.701 317.586 L 299.810 322.973 300.002 317.084 C 300.190 311.290,300.166 310.701,299.783 311.698 M110.194 317.375 C 110.194 320.666,110.253 322.013,110.326 320.367 C 110.398 318.721,110.398 316.028,110.326 314.382 C 110.253 312.736,110.194 314.083,110.194 317.375 M173.128 317.375 C 173.128 320.666,173.188 322.013,173.260 320.367 C 173.332 318.721,173.332 316.028,173.260 314.382 C 173.188 312.736,173.128 314.083,173.128 317.375 M236.063 317.375 C 236.063 320.666,236.122 322.013,236.194 320.367 C 236.267 318.721,236.267 316.028,236.194 314.382 C 236.122 312.736,236.063 314.083,236.063 317.375 M122.005 319.577 C 121.900 321.532,121.952 322.992,122.121 322.823 C 122.289 322.654,122.375 321.054,122.311 319.269 L 122.195 316.023 122.005 319.577 M109.810 329.923 C 109.810 333.533,109.868 335.062,109.939 333.320 C 110.011 331.579,110.011 328.625,109.940 326.756 C 109.869 324.888,109.811 326.313,109.810 329.923 M172.586 329.808 C 172.480 333.355,172.529 336.122,172.694 335.956 C 172.858 335.791,172.945 332.889,172.885 329.507 L 172.778 323.359 172.586 329.808 M210.112 329.610 C 210.071 333.049,210.169 335.943,210.328 336.042 C 210.487 336.141,210.572 334.283,210.517 331.914 C 210.333 324.104,210.186 323.267,210.112 329.610 M235.520 329.808 C 235.415 333.355,235.463 336.122,235.628 335.956 C 235.793 335.791,235.879 332.889,235.820 329.507 L 235.712 323.359 235.520 329.808 M299.386 329.923 C 299.385 333.533,299.443 335.062,299.515 333.320 C 299.586 331.579,299.586 328.625,299.516 326.756 C 299.445 324.888,299.386 326.313,299.386 329.923 M84.313 327.799 C 84.313 330.029,84.377 330.941,84.455 329.826 C 84.533 328.711,84.533 326.887,84.455 325.772 C 84.377 324.657,84.313 325.569,84.313 327.799 M147.249 327.992 C 147.250 330.328,147.313 331.234,147.390 330.005 C 147.467 328.776,147.466 326.865,147.388 325.758 C 147.311 324.651,147.248 325.656,147.249 327.992 M91.409 336.576 C 92.312 336.657,93.789 336.657,94.691 336.576 C 95.594 336.495,94.855 336.428,93.050 336.428 C 91.245 336.428,90.507 336.495,91.409 336.576 M106.088 336.573 C 106.782 336.659,107.824 336.657,108.405 336.569 C 108.985 336.481,108.417 336.411,107.143 336.413 C 105.869 336.415,105.394 336.487,106.088 336.573 M151.255 336.576 C 152.157 336.657,153.634 336.657,154.537 336.576 C 155.439 336.495,154.701 336.428,152.896 336.428 C 151.091 336.428,150.352 336.495,151.255 336.576 M166.313 336.576 C 167.215 336.657,168.692 336.657,169.595 336.576 C 170.497 336.495,169.759 336.428,167.954 336.428 C 166.149 336.428,165.410 336.495,166.313 336.576 M212.250 336.572 C 212.935 336.657,214.152 336.659,214.953 336.575 C 215.754 336.492,215.193 336.422,213.707 336.420 C 212.220 336.418,211.565 336.487,212.250 336.572 M226.544 336.576 C 227.447 336.657,228.924 336.657,229.826 336.576 C 230.729 336.495,229.990 336.428,228.185 336.428 C 226.380 336.428,225.642 336.495,226.544 336.576 M286.776 336.576 C 287.679 336.657,289.155 336.657,290.058 336.576 C 290.960 336.495,290.222 336.428,288.417 336.428 C 286.612 336.428,285.874 336.495,286.776 336.576 " stroke="none" fill="#043434" fill-rule="evenodd"></path><path id="path8" d="M114.479 196.413 C 125.115 196.685,135.047 196.693,134.883 196.429 C 134.784 196.269,129.197 196.176,122.468 196.222 C 115.738 196.267,112.143 196.353,114.479 196.413 M147.743 196.429 C 147.644 196.588,153.151 196.718,159.979 196.718 L 172.394 196.718 172.394 209.133 C 172.394 215.961,172.524 221.468,172.683 221.369 C 173.201 221.049,173.033 197.126,172.510 196.602 C 171.986 196.079,148.063 195.911,147.743 196.429 M186.178 196.602 C 185.654 197.126,185.487 221.049,186.004 221.369 C 186.163 221.468,186.293 215.961,186.293 209.133 L 186.293 196.718 198.069 196.517 L 209.846 196.315 198.243 196.227 C 189.633 196.162,186.521 196.258,186.178 196.602 M242.278 196.510 L 248.456 196.718 248.649 203.089 L 248.842 209.459 261.101 209.468 L 273.359 209.476 261.197 209.366 L 249.035 209.256 249.035 202.932 C 249.035 195.409,249.776 196.112,241.957 196.221 L 236.100 196.302 242.278 196.510 M109.736 208.761 C 109.690 215.597,109.783 221.271,109.942 221.369 C 110.101 221.468,110.187 217.873,110.133 213.381 C 109.946 197.861,109.818 196.378,109.736 208.761 M210.038 208.958 C 209.932 215.902,209.978 221.451,210.141 221.288 C 210.303 221.126,210.390 215.444,210.333 208.662 L 210.231 196.332 210.038 208.958 M235.710 221.622 L 235.714 246.911 280.212 246.914 L 324.710 246.916 280.312 246.815 L 235.913 246.715 235.809 221.523 L 235.706 196.332 235.710 221.622 M274.384 221.718 C 274.482 221.877,280.108 222.008,286.886 222.008 L 299.209 222.008 299.315 228.475 L 299.421 234.942 311.969 235.135 L 324.517 235.328 324.727 240.927 L 324.936 246.525 325.016 241.248 C 325.060 238.345,324.991 235.696,324.862 235.360 C 324.655 234.820,323.170 234.749,312.130 234.749 L 299.633 234.749 299.527 228.282 L 299.421 221.815 286.813 221.622 C 279.878 221.515,274.285 221.559,274.384 221.718 " stroke="none" fill="#2c8c84" fill-rule="evenodd"></path></g></svg>