<svg xmlns="http://www.w3.org/2000/svg" width="64" height="64" viewBox="0 0 64 64" shape-rendering="crispEdges">
  <rect width="64" height="64" fill="#000" fill-opacity="0"/>
  <rect x="24" y="8" width="16" height="6" fill="#ffd1a8"/>
  <rect x="20" y="14" width="24" height="8" fill="#ffd1a8"/>
  <rect x="28" y="10" width="8" height="10" fill="#ffd1a8"/>
  <rect x="30" y="8" width="4" height="14" fill="#9a431f"/>
  <rect x="25" y="13" width="14" height="4" fill="#9a431f"/>
  <rect x="24" y="22" width="16" height="8" fill="#ff8a3d"/>
  <rect x="20" y="30" width="24" height="16" fill="#9a431f"/>
  <rect x="24" y="34" width="16" height="8" fill="#ffd1a8"/>
  <rect x="29" y="35" width="6" height="6" fill="#9a431f"/>
  <rect x="26" y="37" width="12" height="2" fill="#9a431f"/>
  <rect x="14" y="29" width="7" height="17" fill="#4d2110"/>
  <rect x="43" y="29" width="7" height="17" fill="#4d2110"/>
  <rect x="12" y="35" width="6" height="8" fill="#ffd1a8"/>
  <rect x="46" y="35" width="6" height="8" fill="#ffd1a8"/>
  <rect x="24" y="46" width="7" height="11" fill="#4d2110"/>
  <rect x="33" y="46" width="7" height="11" fill="#4d2110"/>
  <rect x="22" y="57" width="10" height="3" fill="#1d0d07"/>
  <rect x="32" y="57" width="10" height="3" fill="#1d0d07"/>
</svg>
