<?xml version="1.0" encoding="UTF-8"?>
<svg version="1.1" xmlns="http://www.w3.org/2000/svg" width="64" height="64">
<path d="M0 0 C2.64 0 5.28 0 8 0 C8 0.66 8 1.32 8 2 C15.26 2 22.52 2 30 2 C30 1.34 30 0.68 30 0 C33.3 0 36.6 0 40 0 C40 0.66 40 1.32 40 2 C40.66 2 41.32 2 42 2 C42 3.98 42 5.96 42 8 C41.34 8 40.68 8 40 8 C40 8.66 40 9.32 40 10 C36.7 10 33.4 10 30 10 C30 9.34 30 8.68 30 8 C23.4 8 16.8 8 10 8 C10 8.66 10 9.32 10 10 C14.62 10 19.24 10 24 10 C24 10.66 24 11.32 24 12 C25.32 12 26.64 12 28 12 C28 12.66 28 13.32 28 14 C28.66 14 29.32 14 30 14 C30 14.66 30 15.32 30 16 C30.66 16 31.32 16 32 16 C32 16.66 32 17.32 32 18 C32.66 18 33.32 18 34 18 C34 18.66 34 19.32 34 20 C34.66 20 35.32 20 36 20 C36 21.32 36 22.64 36 24 C35.34 24 34.68 24 34 24 C34 24.66 34 25.32 34 26 C32.68 26 31.36 26 30 26 C30 27.32 30 28.64 30 30 C29.34 30 28.68 30 28 30 C28 30.66 28 31.32 28 32 C27.34 32 26.68 32 26 32 C26 32.66 26 33.32 26 34 C24.68 34 23.36 34 22 34 C22 33.34 22 32.68 22 32 C21.34 32 20.68 32 20 32 C20 31.34 20 30.68 20 30 C19.34 30 18.68 30 18 30 C18 30.66 18 31.32 18 32 C17.34 32 16.68 32 16 32 C16 32.66 16 33.32 16 34 C14.68 34 13.36 34 12 34 C12 33.34 12 32.68 12 32 C11.34 32 10.68 32 10 32 C10 31.34 10 30.68 10 30 C9.34 30 8.68 30 8 30 C8 30.66 8 31.32 8 32 C7.34 32 6.68 32 6 32 C6 32.66 6 33.32 6 34 C4.68 34 3.36 34 2 34 C2 33.34 2 32.68 2 32 C1.34 32 0.68 32 0 32 C0 31.34 0 30.68 0 30 C-0.66 30 -1.32 30 -2 30 C-2 30.66 -2 31.32 -2 32 C-2.66 32 -3.32 32 -4 32 C-4 32.66 -4 33.32 -4 34 C-5.32 34 -6.64 34 -8 34 C-8 33.34 -8 32.68 -8 32 C-8.66 32 -9.32 32 -10 32 C-10 31.34 -10 30.68 -10 30 C-10.66 30 -11.32 30 -12 30 C-12 28.02 -12 26.04 -12 24 C-12.66 24 -13.32 24 -14 24 C-14 21.36 -14 18.72 -14 16 C-13.34 16 -12.68 16 -12 16 C-12 15.34 -12 14.68 -12 14 C-11.34 14 -10.68 14 -10 14 C-10 13.34 -10 12.68 -10 12 C-8.68 12 -7.36 12 -6 12 C-6 11.34 -6 10.68 -6 10 C-4.68 10 -3.36 10 -2 10 C-2 9.34 -2 8.68 -2 8 C-2.66 8 -3.32 8 -4 8 C-4 6.68 -4 5.36 -4 4 C-3.34 4 -2.68 4 -2 4 C-2 3.34 -2 2.68 -2 2 C-1.34 2 -0.68 2 0 2 C0 1.34 0 0.68 0 0 Z " fill="#613361" transform="translate(16,24)"/>
<path d="M0 0 C2.64 0 5.28 0 8 0 C8 0.66 8 1.32 8 2 C15.26 2 22.52 2 30 2 C30 1.34 30 0.68 30 0 C33.3 0 36.6 0 40 0 C40 0.66 40 1.32 40 2 C40.66 2 41.32 2 42 2 C42 3.98 42 5.96 42 8 C41.34 8 40.68 8 40 8 C40 8.66 40 9.32 40 10 C36.7 10 33.4 10 30 10 C30 9.34 30 8.68 30 8 C22.74 8 15.48 8 8 8 C8 8.66 8 9.32 8 10 C5.36 10 2.72 10 0 10 C0 9.34 0 8.68 0 8 C-1.32 8 -2.64 8 -4 8 C-4 6.68 -4 5.36 -4 4 C-3.34 4 -2.68 4 -2 4 C-2 3.34 -2 2.68 -2 2 C-1.34 2 -0.68 2 0 2 C0 1.34 0 0.68 0 0 Z " fill="#8C0690" transform="translate(16,24)"/>
<path d="M0 0 C2.64 0 5.28 0 8 0 C8 0.66 8 1.32 8 2 C15.26 2 22.52 2 30 2 C30 2.66 30 3.32 30 4 C22.74 4 15.48 4 8 4 C8 4.66 8 5.32 8 6 C5.36 6 2.72 6 0 6 C0 5.34 0 4.68 0 4 C-0.66 4 -1.32 4 -2 4 C-2 3.34 -2 2.68 -2 2 C-1.34 2 -0.68 2 0 2 C0 1.34 0 0.68 0 0 Z " fill="#36212F" transform="translate(16,24)"/>
<path d="M0 0 C4.62 0 9.24 0 14 0 C14 0.66 14 1.32 14 2 C15.32 2 16.64 2 18 2 C18 2.66 18 3.32 18 4 C18.66 4 19.32 4 20 4 C20 4.66 20 5.32 20 6 C20.66 6 21.32 6 22 6 C22 6.66 22 7.32 22 8 C20.02 8 18.04 8 16 8 C16 7.34 16 6.68 16 6 C14.68 6 13.36 6 12 6 C12 5.34 12 4.68 12 4 C10.68 4 9.36 4 8 4 C8 3.34 8 2.68 8 2 C5.36 2 2.72 2 0 2 C0 1.34 0 0.68 0 0 Z " fill="#310132" transform="translate(26,34)"/>
<path d="M0 0 C0.66 0 1.32 0 2 0 C2 0.66 2 1.32 2 2 C3.32 2 4.64 2 6 2 C6 2.66 6 3.32 6 4 C7.32 4 8.64 4 10 4 C10 4.66 10 5.32 10 6 C11.32 6 12.64 6 14 6 C14 6.66 14 7.32 14 8 C9.38 8 4.76 8 0 8 C0 5.36 0 2.72 0 0 Z " fill="#BDFFFD" transform="translate(32,36)"/>
<path d="M0 0 C0.66 0 1.32 0 2 0 C2 1.32 2 2.64 2 4 C3.32 4 4.64 4 6 4 C6 2.68 6 1.36 6 0 C6.66 0 7.32 0 8 0 C8 1.98 8 3.96 8 6 C7.34 6 6.68 6 6 6 C6 6.66 6 7.32 6 8 C4.68 8 3.36 8 2 8 C2 7.34 2 6.68 2 6 C1.34 6 0.68 6 0 6 C0 4.02 0 2.04 0 0 Z " fill="#930098" transform="translate(36,50)"/>
<path d="M0 0 C0.66 0 1.32 0 2 0 C2 1.32 2 2.64 2 4 C3.32 4 4.64 4 6 4 C6 2.68 6 1.36 6 0 C6.66 0 7.32 0 8 0 C8 1.98 8 3.96 8 6 C7.34 6 6.68 6 6 6 C6 6.66 6 7.32 6 8 C4.68 8 3.36 8 2 8 C2 7.34 2 6.68 2 6 C1.34 6 0.68 6 0 6 C0 4.02 0 2.04 0 0 Z " fill="#930098" transform="translate(26,50)"/>
<path d="M0 0 C0.66 0 1.32 0 2 0 C2 1.32 2 2.64 2 4 C3.32 4 4.64 4 6 4 C6 2.68 6 1.36 6 0 C6.66 0 7.32 0 8 0 C8 1.98 8 3.96 8 6 C7.34 6 6.68 6 6 6 C6 6.66 6 7.32 6 8 C4.68 8 3.36 8 2 8 C2 7.34 2 6.68 2 6 C1.34 6 0.68 6 0 6 C0 4.02 0 2.04 0 0 Z " fill="#930098" transform="translate(16,50)"/>
<path d="M0 0 C0.66 0 1.32 0 2 0 C2 1.32 2 2.64 2 4 C3.32 4 4.64 4 6 4 C6 2.68 6 1.36 6 0 C6.66 0 7.32 0 8 0 C8 1.98 8 3.96 8 6 C7.34 6 6.68 6 6 6 C6 6.66 6 7.32 6 8 C4.68 8 3.36 8 2 8 C2 7.34 2 6.68 2 6 C1.34 6 0.68 6 0 6 C0 4.02 0 2.04 0 0 Z " fill="#930098" transform="translate(6,50)"/>
<path d="M0 0 C0.66 0 1.32 0 2 0 C2 1.98 2 3.96 2 6 C2.66 6 3.32 6 4 6 C4 6.66 4 7.32 4 8 C4.66 8 5.32 8 6 8 C6 8.66 6 9.32 6 10 C5.34 10 4.68 10 4 10 C4 11.32 4 12.64 4 14 C3.34 14 2.68 14 2 14 C2 12.02 2 10.04 2 8 C1.34 8 0.68 8 0 8 C0 5.36 0 2.72 0 0 Z " fill="#000000" transform="translate(2,40)"/>
</svg>
