<svg xmlns="http://www.w3.org/2000/svg" width="64" height="64" viewBox="0 0 64 64" shape-rendering="crispEdges">
  <rect width="64" height="64" fill="#000" fill-opacity="0"/>
  <rect x="22" y="10" width="20" height="7" fill="#efd8ff"/>
  <rect x="20" y="17" width="24" height="5" fill="#b65cff"/>
  <rect x="25" y="22" width="14" height="8" fill="#b65cff"/>
  <rect x="24" y="24" width="16" height="3" fill="#efd8ff"/>
  <rect x="19" y="30" width="26" height="17" fill="#7040a6"/>
  <rect x="23" y="33" width="18" height="10" fill="#34204c"/>
  <rect x="16" y="31" width="6" height="19" fill="#34204c"/>
  <rect x="43" y="31" width="6" height="19" fill="#34204c"/>
  <rect x="45" y="42" width="10" height="4" fill="#efd8ff"/>
  <rect x="51" y="38" width="4" height="8" fill="#efd8ff"/>
  <rect x="12" y="43" width="12" height="7" fill="#b65cff"/>
  <rect x="13" y="40" width="10" height="3" fill="#efd8ff"/>
  <rect x="24" y="47" width="7" height="10" fill="#34204c"/>
  <rect x="33" y="47" width="7" height="10" fill="#34204c"/>
  <rect x="22" y="57" width="10" height="3" fill="#12071d"/>
  <rect x="32" y="57" width="10" height="3" fill="#12071d"/>
  <rect x="30" y="34" width="4" height="8" fill="#efd8ff"/>
  <rect x="26" y="36" width="12" height="4" fill="#efd8ff"/>
</svg>
